<svg enable-background="new 0 0 100 100" height="100" viewBox="0 0 100 100" width="100" xmlns="http://www.w3.org/2000/svg"><path d="m50.3 29c-11.6 0-21.1 9.5-21.1 21.1s9.5 21.1 21.1 21.1 21-9.5 21-21.1-9.5-21.1-21-21.1zm0 37.2c-8.9 0-16.1-7.2-16.1-16.1s7.2-16.1 16.1-16.1c8.8 0 16 7.2 16 16.1s-7.2 16.1-16 16.1z"/><path d="m73.8 17.1c-2.2 0-4.2.8-5.7 2.3s-2.3 3.5-2.3 5.7.8 4.2 2.3 5.7 3.5 2.3 5.7 2.3 4.2-.8 5.7-2.3c1.4-1.4 2.3-3.4 2.4-5.6v-.1c0-2.1-.9-4.1-2.3-5.5-1.5-1.6-3.6-2.5-5.8-2.5zm2.1 10.1c-1.1 1.1-3.2 1.1-4.3 0-.6-.6-.9-1.3-.9-2.1s.3-1.6.9-2.1c.6-.6 1.3-.9 2.1-.9s1.6.3 2.2.9c.5.5.9 1.3.9 2 0 .9-.3 1.7-.9 2.2z"/><path d="m67.8 7h-35.1c-14.1 0-25.5 11.4-25.5 25.5v35.2c0 14.1 11.4 25.5 25.5 25.5h35.2c14.1 0 25.5-11.4 25.5-25.5v-35.2c-.1-14.1-11.5-25.5-25.6-25.5zm20.5 60.7c0 11.3-9.2 20.5-20.5 20.5h-35.1c-11.3 0-20.5-9.2-20.5-20.5v-35.2c0-11.3 9.2-20.5 20.5-20.5h35.2c11.3 0 20.5 9.2 20.5 20.5v35.2z"/></svg>